<svg width="8" height="14" viewBox="0 0 8 14" fill="none" xmlns="http://www.w3.org/2000/svg">
<path fill-rule="evenodd" clip-rule="evenodd" d="M1.14506 13.3539C1.05102 13.2601 0.998169 13.1327 0.998169 12.9999C0.998169 12.867 1.05102 12.7397 1.14506 12.6459L6.79206 6.99987L1.14506 1.35387C1.01859 1.2274 0.969198 1.04306 1.01549 0.8703C1.06178 0.697536 1.19673 0.562593 1.36949 0.5163C1.54225 0.470008 1.72659 0.519401 1.85306 0.645873L7.85306 6.64587C7.9471 6.73968 7.99996 6.86705 7.99996 6.99987C7.99996 7.1327 7.9471 7.26007 7.85306 7.35387L1.85306 13.3539C1.75926 13.4479 1.63189 13.5008 1.49906 13.5008C1.36624 13.5008 1.23887 13.4479 1.14506 13.3539Z" fill="#052C65"/>
</svg>
